# xmcd
#
# Track frame offsets:
#	150
#	19814
#	38824
#	61462
#	81068
#	99368
#	119149
#	140046
#	162495
#	191330
#	225036
#	236512
#	260504
#	288249
#
# Disc length: 4189 seconds
#
# Revision: 0
# Processed by: cddbd v1.5.2PL0 Copyright (c) Steve Scherf et al.
# Submitted via: audiograbber 1.83.01
#
DISCID=ba105b0e
DTITLE=Various Artist - Ridin' Dirty in the South: The Ultimate Southern Hip-H
DTITLE=op Collection D3
DYEAR=2006
DGENRE=Rap
TTITLE0=Chopped and Screwed Track  1
TTITLE1=Chopped and Screwed Track  2
TTITLE2=Chopped and Screwed Track  3
TTITLE3=Chopped and Screwed Track  4
TTITLE4=Chopped and Screwed Track  5
TTITLE5=Chopped and Screwed Track  6
TTITLE6=Chopped and Screwed Track  7
TTITLE7=Chopped and Screwed Track  8
TTITLE8=Chopped and Screwed Track  9
TTITLE9=Chopped and Screwed Track 10
TTITLE10=Chopped and Screwed Track 11
TTITLE11=Chopped and Screwed Track 12
TTITLE12=Chopped and Screwed Track 13
TTITLE13=Chopped and Screwed Track 14
EXTD=
EXTT0=
EXTT1=
EXTT2=
EXTT3=
EXTT4=
EXTT5=
EXTT6=
EXTT7=
EXTT8=
EXTT9=
EXTT10=
EXTT11=
EXTT12=
EXTT13=
PLAYORDER=
